<svg width="22" height="20" viewBox="0 0 22 20" fill="none" xmlns="http://www.w3.org/2000/svg">
<path d="M19.84 2.60999C19.3292 2.099 18.7228 1.69364 18.0554 1.41708C17.3879 1.14052 16.6725 0.998169 15.95 0.998169C15.2275 0.998169 14.5121 1.14052 13.8446 1.41708C13.1772 1.69364 12.5708 2.099 12.06 2.60999L11 3.66999L9.94 2.60999C8.9083 1.5783 7.50903 0.998704 6.05 0.998704C4.59096 0.998704 3.19169 1.5783 2.16 2.60999C1.1283 3.64169 0.548706 5.04096 0.548706 6.49999C0.548706 7.95903 1.1283 9.3583 2.16 10.39L3.22 11.45L11 19.23L18.78 11.45L19.84 10.39C20.351 9.87924 20.7563 9.27281 21.0329 8.60535C21.3095 7.93789 21.4518 7.22248 21.4518 6.49999C21.4518 5.77751 21.3095 5.0621 21.0329 4.39464C20.7563 3.72718 20.351 3.12075 19.84 2.60999Z" fill="#7000FF"/>
</svg>
