<svg width="25" height="24" viewBox="0 0 25 24" fill="none" xmlns="http://www.w3.org/2000/svg">
<rect x="4.09" y="10" width="16" height="10" rx="1" fill="#5C5CD6"/>
<rect x="5.09" y="11" width="14" height="8" rx="1" fill="#EAEAF9"/>
<rect x="4.09" y="10" width="16" height="10" rx="1" stroke="#5C5CD6" stroke-width="2"/>
<path d="M5.10001 5C5.10001 2.79086 6.89087 1 9.10001 1H15.08C17.2891 1 19.08 2.79086 19.08 5C19.08 5 18.1846 5 17.08 5H7.10001C5.99544 5 5.10001 5 5.10001 5ZM19.08 5H5.10001H19.08ZM5.10001 5V3V5ZM19.08 3V5V3Z" fill="#5C5CD6" mask="url(#path-3-inside-1_1_4912)"/>
<mask id="path-5-inside-2_1_4912" fill="white">
<path d="M4.10999 8C4.10999 6.89543 5.00542 6 6.10999 6H18.08C19.1846 6 20.08 6.89543 20.08 8H4.10999Z"/>
</mask>
<path d="M4.10999 8C4.10999 6.89543 5.00542 6 6.10999 6H18.08C19.1846 6 20.08 6.89543 20.08 8H4.10999Z" fill="#5C5CD6"/>
<path d="M4.10999 8C4.10999 5.79086 5.90085 4 8.10999 4H16.08C18.2891 4 20.08 5.79086 20.08 8C20.08 8 19.1846 8 18.08 8H6.10999C5.00542 8 4.10999 8 4.10999 8ZM20.08 8H4.10999H20.08ZM4.10999 8V6V8ZM20.08 6V8V6Z" fill="#5C5CD6" mask="url(#path-5-inside-2_1_4912)"/>
</svg>
