<svg width="21" height="18" viewBox="0 0 21 18" fill="none" xmlns="http://www.w3.org/2000/svg">
<path fill-rule="evenodd" clip-rule="evenodd" d="M6.44998 1.5C4.21933 1.5 2.44998 3.30906 2.44998 5.5C2.44998 6.4282 2.82682 7.4436 3.49868 8.5105C4.1669 9.5716 5.09146 10.6274 6.10125 11.6219C7.50767 13.007 8.98178 14.1879 10.1208 15.1003C10.4234 15.3427 10.7023 15.5661 10.95 15.7694C11.1977 15.5661 11.4766 15.3427 11.7792 15.1003C12.9182 14.1879 14.3923 13.007 15.7987 11.6219C16.8085 10.6274 17.7331 9.5716 18.4013 8.5105C19.0732 7.4436 19.45 6.4282 19.45 5.5C19.45 3.30898 17.6814 1.5 15.45 1.5C13.2973 1.5 12.0238 3.20226 11.6762 3.74742C11.3389 4.27655 10.5611 4.27653 10.2238 3.74742C9.87618 3.20225 8.60271 1.5 6.44998 1.5ZM0.949982 5.5C0.949982 2.49094 3.38063 0 6.44998 0C8.68141 0 10.1749 1.30207 10.95 2.21581C11.7251 1.30207 13.2186 0 15.45 0C18.5202 0 20.95 2.49102 20.95 5.5C20.95 6.8218 20.4206 8.1189 19.6706 9.3098C18.9169 10.5066 17.904 11.6539 16.8513 12.6906C15.3929 14.1269 13.758 15.4384 12.6002 16.3672C12.1149 16.7565 11.7134 17.0786 11.4439 17.3144C11.1611 17.5619 10.7389 17.5619 10.4561 17.3144C10.1866 17.0786 9.78508 16.7565 9.29978 16.3672C8.14199 15.4384 6.5071 14.1269 5.04871 12.6906C3.996 11.6539 2.98306 10.5066 2.2294 9.3098C1.47939 8.1189 0.949982 6.8218 0.949982 5.5Z" fill="#141415"/>
</svg>
