<svg width="17" height="16" viewBox="0 0 17 16" fill="none" xmlns="http://www.w3.org/2000/svg">
<path fill-rule="evenodd" clip-rule="evenodd" d="M11.73 6.5C11.73 9.2614 9.4914 11.5 6.73 11.5C3.96858 11.5 1.73 9.2614 1.73 6.5C1.73 3.73858 3.96858 1.5 6.73 1.5C9.4914 1.5 11.73 3.73858 11.73 6.5ZM10.5698 11.7451C9.494 12.5341 8.1664 13 6.73 13C3.14015 13 0.229996 10.0899 0.229996 6.5C0.229996 2.91015 3.14015 0 6.73 0C10.3199 0 13.23 2.91015 13.23 6.5C13.23 7.9364 12.7641 9.264 11.9751 10.3398L15.939 14.3036C16.327 14.6917 16.327 15.3209 15.939 15.709C15.5509 16.097 14.9217 16.097 14.5336 15.709L10.5698 11.7451Z" fill="black"/>
</svg>
