<svg width="17" height="20" viewBox="0 0 17 20" fill="none" xmlns="http://www.w3.org/2000/svg">
<path fill-rule="evenodd" clip-rule="evenodd" d="M5.47998 4.5C5.47998 2.88779 6.72018 1.5 8.47998 1.5C10.2398 1.5 11.48 2.88779 11.48 4.5V5.5H5.47998V4.5ZM3.97998 7V9.5H5.47998V7H11.48V9.5H12.98V7H14.98V17.75C14.98 18.1642 14.6442 18.5 14.23 18.5H2.72998C2.31577 18.5 1.97998 18.1642 1.97998 17.75V7H3.97998ZM3.97998 5.5V4.5C3.97998 2.11221 5.83982 0 8.47998 0C11.1202 0 12.98 2.11221 12.98 4.5V5.5H15.73H16.48V6.25V17.75C16.48 18.9926 15.4726 20 14.23 20H2.72998C1.48734 20 0.47998 18.9926 0.47998 17.75V6.25V5.5H1.22998H3.97998Z" fill="#141415"/>
</svg>
