<svg width="17" height="19" viewBox="0 0 17 19" fill="none" xmlns="http://www.w3.org/2000/svg">
<path fill-rule="evenodd" clip-rule="evenodd" d="M8.46997 0C6.26083 0 4.46997 1.79086 4.46997 4V5C4.46997 7.2091 6.26083 9 8.46997 9C10.6791 9 12.47 7.2091 12.47 5V4C12.47 1.79086 10.6791 0 8.46997 0ZM5.96997 4C5.96997 2.61929 7.08927 1.5 8.46997 1.5C9.85067 1.5 10.97 2.61929 10.97 4V5C10.97 6.38071 9.85067 7.5 8.46997 7.5C7.08927 7.5 5.96997 6.38071 5.96997 5V4ZM1.97229 16.3686C2.44318 13.2577 5.488 11.5 8.47217 11.5C11.4558 11.5 14.501 13.2577 14.9719 16.3686C14.9746 16.3866 14.9725 16.3972 14.97 16.4048C14.967 16.4137 14.9603 16.4269 14.9459 16.442C14.9153 16.4741 14.8594 16.5039 14.7871 16.5039H2.15715C2.08484 16.5039 2.02895 16.4741 1.99835 16.442C1.98391 16.4269 1.97723 16.4137 1.97424 16.4048C1.97171 16.3972 1.96958 16.3865 1.97229 16.3686ZM8.47217 10C5.04318 10 1.11034 12.0404 0.489187 16.1441C0.326207 17.2208 1.22724 18.0039 2.15715 18.0039H14.7871C15.717 18.0039 16.618 17.2208 16.455 16.1441C15.8338 12.0404 11.9006 10 8.47217 10Z" fill="black"/>
</svg>
