<?xml version="1.0" ?><svg id="Layer_1" style="enable-background:new 0 0 512 512;" version="1.1" viewBox="0 0 512 512" xml:space="preserve" xmlns="http://www.w3.org/2000/svg" xmlns:xlink="http://www.w3.org/1999/xlink"><style type="text/css">
	.st0{fill:#4497B1;}
	.st1{fill:#BC0030;}
	.st2{fill:#FFFFFF;}
	.st3{fill:#50B63F;}
</style><g><rect class="st0" height="95.6" width="512" y="106.7"/><rect class="st1" height="6" width="512" y="202.2"/><rect class="st2" height="95.6" width="512" y="208.2"/><rect class="st1" height="6" width="512" y="303.8"/><rect class="st3" height="95.6" width="512" y="309.8"/><path class="st2" d="M119.5,154.4c0,19.8-16.1,35.8-35.8,35.8c-19.8,0-35.8-16.1-35.8-35.8c0-19.8,16.1-35.8,35.8-35.8   C103.4,118.6,119.5,134.7,119.5,154.4"/><path class="st0" d="M129.6,154.4c0,16.5-13.4,29.9-29.9,29.9c-16.5,0-29.9-13.4-29.9-29.9c0-16.5,13.4-29.9,29.9-29.9   C116.2,124.6,129.6,138,129.6,154.4"/><polygon class="st2" points="174.4,118.6 172.2,125.4 175.6,126.5  "/><polygon class="st2" points="174.4,118.6 176.6,125.4 173.2,126.5  "/><polygon class="st2" points="181.2,123.6 174.1,123.6 174.1,127.1  "/><polygon class="st2" points="181.2,123.6 175.4,127.8 173.3,124.9  "/><polygon class="st2" points="167.6,123.6 173.4,127.8 175.5,124.9  "/><polygon class="st2" points="167.6,123.6 174.8,123.6 174.8,127.1  "/><polygon class="st2" points="178.6,131.6 176.4,124.7 173,125.9  "/><polygon class="st2" points="178.6,131.6 172.8,127.4 174.9,124.5  "/><polygon class="st2" points="170.2,131.6 176,127.4 173.9,124.5  "/><polygon class="st2" points="170.2,131.6 172.4,124.7 175.8,125.9  "/><polygon class="st2" points="203.1,118.6 200.9,125.4 204.3,126.5  "/><polygon class="st2" points="203.1,118.6 205.3,125.4 201.9,126.5  "/><polygon class="st2" points="209.9,123.6 202.7,123.6 202.7,127.1  "/><polygon class="st2" points="209.9,123.6 204.1,127.8 202,124.9  "/><polygon class="st2" points="196.3,123.6 202.1,127.8 204.2,124.9  "/><polygon class="st2" points="196.3,123.6 203.4,123.6 203.4,127.1  "/><polygon class="st2" points="207.3,131.6 205.1,124.7 201.7,125.9  "/><polygon class="st2" points="207.3,131.6 201.5,127.4 203.6,124.5  "/><polygon class="st2" points="198.9,131.6 204.7,127.4 202.6,124.5  "/><polygon class="st2" points="198.9,131.6 201.1,124.7 204.5,125.9  "/><polygon class="st2" points="231.8,118.6 229.6,125.4 233,126.5  "/><polygon class="st2" points="231.8,118.6 234,125.4 230.6,126.5  "/><polygon class="st2" points="238.6,123.6 231.4,123.6 231.4,127.1  "/><polygon class="st2" points="238.6,123.6 232.8,127.8 230.7,124.9  "/><polygon class="st2" points="224.9,123.6 230.7,127.8 232.9,124.9  "/><polygon class="st2" points="224.9,123.6 232.1,123.6 232.1,127.1  "/><polygon class="st2" points="236,131.6 233.8,124.7 230.4,125.9  "/><polygon class="st2" points="236,131.6 230.2,127.4 232.3,124.5  "/><polygon class="st2" points="227.6,131.6 233.4,127.4 231.2,124.5  "/><polygon class="st2" points="227.6,131.6 229.8,124.7 233.2,125.9  "/><polygon class="st2" points="145.7,147.3 143.5,154.1 146.9,155.2  "/><polygon class="st2" points="145.7,147.3 148,154.1 144.6,155.2  "/><polygon class="st2" points="152.6,152.2 145.4,152.2 145.4,155.8  "/><polygon class="st2" points="152.6,152.2 146.8,156.4 144.7,153.5  "/><polygon class="st2" points="138.9,152.2 144.7,156.4 146.8,153.5  "/><polygon class="st2" points="138.9,152.2 146.1,152.2 146.1,155.8  "/><polygon class="st2" points="150,160.2 147.7,153.4 144.3,154.5  "/><polygon class="st2" points="150,160.2 144.2,156 146.3,153.1  "/><polygon class="st2" points="141.5,160.2 147.3,156 145.2,153.1  "/><polygon class="st2" points="141.5,160.2 143.8,153.4 147.2,154.5  "/><polygon class="st2" points="174.4,147.3 172.2,154.1 175.6,155.2  "/><polygon class="st2" points="174.4,147.3 176.6,154.1 173.2,155.2  "/><polygon class="st2" points="181.2,152.2 174.1,152.2 174.1,155.8  "/><polygon class="st2" points="181.2,152.2 175.4,156.4 173.3,153.5  "/><polygon class="st2" points="167.6,152.2 173.4,156.4 175.5,153.5  "/><polygon class="st2" points="167.6,152.2 174.8,152.2 174.8,155.8  "/><polygon class="st2" points="178.6,160.2 176.4,153.4 173,154.5  "/><polygon class="st2" points="178.6,160.2 172.8,156 174.9,153.1  "/><polygon class="st2" points="170.2,160.2 176,156 173.9,153.1  "/><polygon class="st2" points="170.2,160.2 172.4,153.4 175.8,154.5  "/><polygon class="st2" points="203.1,147.3 200.9,154.1 204.3,155.2  "/><polygon class="st2" points="203.1,147.3 205.3,154.1 201.9,155.2  "/><polygon class="st2" points="209.9,152.2 202.7,152.2 202.7,155.8  "/><polygon class="st2" points="209.9,152.2 204.1,156.4 202,153.5  "/><polygon class="st2" points="196.3,152.2 202.1,156.4 204.2,153.5  "/><polygon class="st2" points="196.3,152.2 203.4,152.2 203.4,155.8  "/><polygon class="st2" points="207.3,160.2 205.1,153.4 201.7,154.5  "/><polygon class="st2" points="207.3,160.2 201.5,156 203.6,153.1  "/><polygon class="st2" points="198.9,160.2 204.7,156 202.6,153.1  "/><polygon class="st2" points="198.9,160.2 201.1,153.4 204.5,154.5  "/><polygon class="st2" points="231.8,147.3 229.6,154.1 233,155.2  "/><polygon class="st2" points="231.8,147.3 234,154.1 230.6,155.2  "/><polygon class="st2" points="238.6,152.2 231.4,152.2 231.4,155.8  "/><polygon class="st2" points="238.6,152.2 232.8,156.4 230.7,153.5  "/><polygon class="st2" points="224.9,152.2 230.7,156.4 232.9,153.5  "/><polygon class="st2" points="224.9,152.2 232.1,152.2 232.1,155.8  "/><polygon class="st2" points="236,160.2 233.8,153.4 230.4,154.5  "/><polygon class="st2" points="236,160.2 230.2,156 232.3,153.1  "/><polygon class="st2" points="227.6,160.2 233.4,156 231.2,153.1  "/><polygon class="st2" points="227.6,160.2 229.8,153.4 233.2,154.5  "/><polygon class="st2" points="117.1,176 114.9,182.8 118.3,183.9  "/><polygon class="st2" points="117.1,176 119.3,182.8 115.9,183.9  "/><polygon class="st2" points="123.9,180.9 116.7,180.9 116.7,184.5  "/><polygon class="st2" points="123.9,180.9 118.1,185.1 116,182.2  "/><polygon class="st2" points="110.3,180.9 116.1,185.1 118.2,182.2  "/><polygon class="st2" points="110.3,180.9 117.4,180.9 117.4,184.5  "/><polygon class="st2" points="121.3,188.9 119.1,182.1 115.7,183.2  "/><polygon class="st2" points="121.3,188.9 115.5,184.7 117.6,181.8  "/><polygon class="st2" points="112.9,188.9 118.7,184.7 116.6,181.8  "/><polygon class="st2" points="112.9,188.9 115.1,182.1 118.5,183.2  "/><polygon class="st2" points="145.7,176 143.5,182.8 146.9,183.9  "/><polygon class="st2" points="145.7,176 148,182.8 144.6,183.9  "/><polygon class="st2" points="152.6,180.9 145.4,180.9 145.4,184.5  "/><polygon class="st2" points="152.6,180.9 146.8,185.1 144.7,182.2  "/><polygon class="st2" points="138.9,180.9 144.7,185.1 146.8,182.2  "/><polygon class="st2" points="138.9,180.9 146.1,180.9 146.1,184.5  "/><polygon class="st2" points="150,188.9 147.7,182.1 144.3,183.2  "/><polygon class="st2" points="150,188.9 144.2,184.7 146.3,181.8  "/><polygon class="st2" points="141.5,188.9 147.3,184.7 145.2,181.8  "/><polygon class="st2" points="141.5,188.9 143.8,182.1 147.2,183.2  "/><polygon class="st2" points="174.4,176 172.2,182.8 175.6,183.9  "/><polygon class="st2" points="174.4,176 176.6,182.8 173.2,183.9  "/><polygon class="st2" points="181.2,180.9 174.1,180.9 174.1,184.5  "/><polygon class="st2" points="181.2,180.9 175.4,185.1 173.3,182.2  "/><polygon class="st2" points="167.6,180.9 173.4,185.1 175.5,182.2  "/><polygon class="st2" points="167.6,180.9 174.8,180.9 174.8,184.5  "/><polygon class="st2" points="178.6,188.9 176.4,182.1 173,183.2  "/><polygon class="st2" points="178.6,188.9 172.8,184.7 174.9,181.8  "/><polygon class="st2" points="170.2,188.9 176,184.7 173.9,181.8  "/><polygon class="st2" points="170.2,188.9 172.4,182.1 175.8,183.2  "/><polygon class="st2" points="203.1,176 200.9,182.8 204.3,183.9  "/><polygon class="st2" points="203.1,176 205.3,182.8 201.9,183.9  "/><polygon class="st2" points="209.9,180.9 202.7,180.9 202.7,184.5  "/><polygon class="st2" points="209.9,180.9 204.1,185.1 202,182.2  "/><polygon class="st2" points="196.3,180.9 202.1,185.1 204.2,182.2  "/><polygon class="st2" points="196.3,180.9 203.4,180.9 203.4,184.5  "/><polygon class="st2" points="207.3,188.9 205.1,182.1 201.7,183.2  "/><polygon class="st2" points="207.3,188.9 201.5,184.7 203.6,181.8  "/><polygon class="st2" points="198.9,188.9 204.7,184.7 202.6,181.8  "/><polygon class="st2" points="198.9,188.9 201.1,182.1 204.5,183.2  "/><polygon class="st2" points="231.8,176 229.6,182.8 233,183.9  "/><polygon class="st2" points="231.8,176 234,182.8 230.6,183.9  "/><polygon class="st2" points="238.6,180.9 231.4,180.9 231.4,184.5  "/><polygon class="st2" points="238.6,180.9 232.8,185.1 230.7,182.2  "/><polygon class="st2" points="224.9,180.9 230.7,185.1 232.9,182.2  "/><polygon class="st2" points="224.9,180.9 232.1,180.9 232.1,184.5  "/><polygon class="st2" points="236,188.9 233.8,182.1 230.4,183.2  "/><polygon class="st2" points="236,188.9 230.2,184.7 232.3,181.8  "/><polygon class="st2" points="227.6,188.9 233.4,184.7 231.2,181.8  "/><polygon class="st2" points="227.6,188.9 229.8,182.1 233.2,183.2  "/></g></svg>